<?xml version="1.0" encoding="utf-8"?>
<!-- Generator: Adobe Illustrator 22.0.0, SVG Export Plug-In . SVG Version: 6.00 Build 0)  -->
<svg version="1.1" id="Слой_1" xmlns="http://www.w3.org/2000/svg" xmlns:xlink="http://www.w3.org/1999/xlink" x="0px" y="0px"
	 viewBox="0 0 43 43" style="enable-background:new 0 0 43 43;" xml:space="preserve">
<style type="text/css">
	.st0{fill:#898989;}
	.st1{fill:#FFFFFF;}
</style>
<ellipse class="st0" cx="21.5" cy="21.5" rx="21.5" ry="21.5"/>
<g>
	<path class="st1" d="M17.7,28.8c0-2.3,0-4.6,0-6.9c0-0.3,0-0.4-0.4-0.3c-0.8,0-1.7,0-2.5,0c-0.3,0-0.3-0.1-0.3-0.3
		c0-1.4,0-2.8,0-4.2c0-0.3,0.1-0.3,0.3-0.3c0.8,0,1.6,0,2.5,0c0.4,0,0.4,0,0.4-0.4c0-0.9,0-1.8,0-2.8c0-1,0.1-2,0.5-2.9
		c0.6-1.6,1.7-2.6,3.3-3.1c1-0.3,2.1-0.5,3.1-0.5c0.9,0,1.9,0,2.8,0c0.2,0,0.5,0,0.7,0c0.3,0,0.3,0.1,0.3,0.4c0,1.4,0,2.8,0,4.2
		c0,0.3-0.1,0.4-0.4,0.4c-1,0-1.9,0-2.9,0c-1,0-1.7,0.7-1.7,1.7c0,1,0,1.9,0,2.9c0,0.2,0.1,0.2,0.2,0.2c1.3,0,2.6,0,3.8,0
		c0.2,0,0.4,0,0.5,0c0.3,0,0.4,0.1,0.3,0.4c-0.1,0.6-0.2,1.3-0.3,1.9c-0.1,0.7-0.3,1.5-0.4,2.3c0,0.3-0.1,0.3-0.4,0.3
		c-1.1,0-2.3,0-3.4,0c-0.4,0-0.4,0-0.4,0.4c0,4.6,0,9.1,0,13.7c0,0.1,0,0.2,0,0.3c0,0.2-0.1,0.2-0.3,0.3c0,0-0.1,0-0.1,0
		c-1.7,0-3.3,0-5,0c-0.4,0-0.4-0.1-0.4-0.4C17.7,33.4,17.7,31.1,17.7,28.8C17.7,28.8,17.7,28.8,17.7,28.8z"/>
</g>
</svg>
