<?xml version="1.0" encoding="utf-8"?>
<!-- Generator: Adobe Illustrator 22.0.0, SVG Export Plug-In . SVG Version: 6.00 Build 0)  -->
<svg version="1.1" id="Слой_1" xmlns="http://www.w3.org/2000/svg" xmlns:xlink="http://www.w3.org/1999/xlink" x="0px" y="0px"
	 viewBox="0 0 43 43" style="enable-background:new 0 0 43 43;" xml:space="preserve">
<style type="text/css">
	.st0{fill:#3FBF3F;}
	.st1{fill:#FFFFFF;}
</style>
<ellipse class="st0" cx="21.5" cy="21.5" rx="21.5" ry="21.5"/>
<g>
	<g>
		<path class="st1" d="M21.5,33.1c-1.7,0-3.4,0-5.1-0.1c-1.9-0.1-3.6-0.8-4.8-2.3c-0.6-0.7-1-1.6-1.3-2.5c-0.2-0.9-0.3-1.8-0.3-2.7
			c-0.1-2.7-0.1-5.5,0-8.2c0-0.8,0.1-1.7,0.3-2.5c0.4-1.9,1.5-3.3,3.3-4.1c0.9-0.4,1.8-0.6,2.8-0.7c2.7-0.2,5.5-0.1,8.2-0.1
			c0.9,0,1.8,0.1,2.7,0.2c1.6,0.2,3.1,0.8,4.1,2.1c0.7,0.8,1.1,1.7,1.3,2.7c0.1,0.8,0.2,1.6,0.3,2.4c0.1,2.8,0.1,5.7,0,8.5
			c0,0.8-0.1,1.6-0.3,2.4c-0.4,2-1.6,3.5-3.6,4.3c-1.1,0.5-2.2,0.6-3.3,0.6C24.4,33.1,23,33.1,21.5,33.1
			C21.5,33.2,21.5,33.1,21.5,33.1z M21.7,12.4C21.7,12.4,21.7,12.4,21.7,12.4c-1.5,0-2.9,0-4.4,0c-0.8,0-1.6,0.1-2.4,0.3
			c-1.1,0.4-1.8,1-2.2,2.1c-0.2,0.7-0.3,1.4-0.3,2.1c-0.1,2.5-0.1,5-0.1,7.5c0,1,0,2.1,0.3,3.1c0.2,1,0.7,1.7,1.6,2.2
			c0.8,0.5,1.7,0.6,2.7,0.6c3.1,0.1,6.1,0.1,9.2,0c0.7,0,1.3-0.1,2-0.3c1-0.3,1.8-0.9,2.3-2c0.3-0.7,0.3-1.5,0.4-2.2
			c0.1-2.4,0.1-4.9,0.1-7.3c0-1.1,0-2.1-0.3-3.2c-0.3-1.3-1.1-2.1-2.3-2.6c-0.8-0.3-1.7-0.3-2.5-0.4C24.3,12.4,23,12.4,21.7,12.4z"
			/>
	</g>
	<g>
		<path class="st1" d="M27.1,21.7c0,2.5-1.5,4.6-3.8,5.5c-2.5,0.9-5.2-0.1-6.7-2.3c-1.9-3-0.7-7,2.5-8.4c2.6-1.2,5.8-0.1,7.2,2.5
			C26.9,19.8,27.1,20.7,27.1,21.7z M24.7,21.7c0-1.8-1.5-3.3-3.3-3.3c-1.8,0-3.3,1.5-3.3,3.3c0,1.8,1.5,3.4,3.3,3.4
			C23.3,25.1,24.7,23.6,24.7,21.7z"/>
	</g>
	<g>
		<path class="st1" d="M26.3,16c0-0.7,0.6-1.3,1.3-1.3c0.7,0,1.3,0.6,1.3,1.3c0,0.7-0.6,1.3-1.3,1.3C26.9,17.4,26.3,16.8,26.3,16z"
			/>
	</g>
</g>
</svg>
