<?xml version="1.0" encoding="utf-8"?>
<!-- Generator: Adobe Illustrator 22.0.0, SVG Export Plug-In . SVG Version: 6.00 Build 0)  -->
<svg version="1.1" id="Слой_1" xmlns="http://www.w3.org/2000/svg" xmlns:xlink="http://www.w3.org/1999/xlink" x="0px" y="0px"
	 viewBox="0 0 43 43" style="enable-background:new 0 0 43 43;" xml:space="preserve">
<style type="text/css">
	.st0{fill:#898989;}
	.st1{fill:#FFFFFF;}
</style>
<g>
	<ellipse class="st0" cx="21.5" cy="21.5" rx="21.5" ry="21.5"/>
	<g>
		<g>
			<path class="st1" d="M14.7,31.2c0-0.5,0.2-1,0.6-1.4c1.1-1.1,2.3-2.3,3.4-3.4c0,0,0.1-0.1,0.1-0.2c0,0-0.1,0-0.2-0.1
				c-1.2-0.3-2.4-0.8-3.4-1.5c-1.3-0.8-1.3-2.6,0-3.3c0.7-0.4,1.3-0.3,2,0.1c1,0.6,2.1,1,3.2,1.2c1.9,0.2,3.7-0.1,5.4-1.1
				c0.8-0.5,1.6-0.4,2.3,0.1c1,0.8,0.9,2.3-0.1,3c-1.1,0.7-2.3,1.2-3.6,1.5c-0.1,0-0.1,0-0.2,0.1c0,0.1,0.1,0.1,0.1,0.2
				c1.1,1.1,2.3,2.3,3.4,3.4c0.7,0.8,0.8,1.9,0.1,2.6c-0.7,0.8-2,0.9-2.8,0.1c-1.1-1.1-2.2-2.2-3.3-3.3c-0.2-0.2-0.2-0.2-0.4,0
				c-1.1,1.1-2.2,2.2-3.3,3.3c-1,1-2.5,0.7-3.1-0.5C14.8,31.8,14.7,31.5,14.7,31.2z"/>
		</g>
		<g>
			<path class="st1" d="M21.5,8.1c-3.5,0-6.4,2.9-6.5,6.4c0,3.5,2.8,6.6,6.4,6.6c3.6,0,6.5-2.9,6.5-6.5C28,11,25.1,8.1,21.5,8.1z
				 M21.5,17.2c-1.5,0-2.7-1.2-2.7-2.7c0-1.5,1.2-2.7,2.7-2.7c1.5,0,2.7,1.2,2.7,2.7C24.2,16.1,23,17.2,21.5,17.2z"/>
		</g>
	</g>
</g>
</svg>
