<svg xmlns="http://www.w3.org/2000/svg" viewBox="0 0 43 43"><defs><style>.cls-1{fill:#3fbf3f;}.cls-2{fill:#fff;}</style></defs><title>Asset 1</title><g id="Layer_2" data-name="Layer 2"><g id="Слой_1" data-name="Слой 1"><circle class="cls-1" cx="21.5" cy="21.5" r="21.5"/><path class="cls-2" d="M7.37,24.39l-1.12-1.7H5.11v1.7H3.64V18.51H6.23c1.48,0,2.46.8,2.46,2.07a2,2,0,0,1-1,1.76l1.4,2.06H7.37Zm-2.25-3H6.21c.57,0,1-.31,1-.8s-.45-.78-1-.78H5.13Z"/><path class="cls-2" d="M15.2,21.64a2.58,2.58,0,0,1-2.77,2.86,2.58,2.58,0,0,1-2.76-2.86V18.5h1.49v3.17c0,.9.49,1.46,1.27,1.46a1.29,1.29,0,0,0,1.28-1.46V18.5H15.2Z"/><path class="cls-2" d="M21.4,19.81H19.51v4.57H18V19.81H16.15v-1.3h5.26v1.3Z"/><path class="cls-2" d="M27.88,21.64a2.58,2.58,0,0,1-2.77,2.86,2.58,2.58,0,0,1-2.76-2.86V18.5h1.49v3.17c0,.9.49,1.46,1.27,1.46a1.29,1.29,0,0,0,1.28-1.46V18.5h1.49Z"/><path class="cls-2" d="M33.91,22.75c0,1-.79,1.63-2.13,1.63h-3V18.51h2.81c1.29,0,2,.61,2,1.57a1.36,1.36,0,0,1-.82,1.29A1.34,1.34,0,0,1,33.91,22.75ZM30.28,19.7v1.22h1.11c.56,0,.86-.27.86-.65s-.3-.57-.86-.57Zm2.2,2.86c0-.37-.31-.57-.86-.57H30.28v1.19h1.32C32.2,23.17,32.48,22.91,32.48,22.56Z"/><path class="cls-2" d="M36.36,19.79v1.07H39v1.25H36.36v1h3V24.4H34.87V18.52h4.49v1.27Z"/></g></g></svg>