<?xml version="1.0" encoding="utf-8"?>
<!-- Generator: Adobe Illustrator 22.0.0, SVG Export Plug-In . SVG Version: 6.00 Build 0)  -->
<svg version="1.1" id="Слой_1" xmlns="http://www.w3.org/2000/svg" xmlns:xlink="http://www.w3.org/1999/xlink" x="0px" y="0px"
	 viewBox="0 0 43 43" style="enable-background:new 0 0 43 43;" xml:space="preserve">
<style type="text/css">
	.st0{fill:#3FBF3F;}
	.st1{fill:#FFFFFF;}
</style>
<g>
	<path class="st0" d="M43,21.5c0,0.2,0,0.4,0,0.7C42.6,33.3,33.8,42.4,22.7,43c-0.4,0-0.8,0-1.2,0h-0.1C9.8,43,0.3,33.7,0,22.2
		c0-0.2,0-0.4,0-0.6c0-0.3,0-0.5,0-0.8C0.4,9.3,9.8,0.1,21.2,0c0.1,0,0.2,0,0.3,0c0.3,0,0.5,0,0.8,0C33.5,0.4,42.5,9.4,43,20.7
		C43,20.9,43,21.2,43,21.5z"/>
	<g>
		<path class="st1" d="M43,21.5c0,0.2,0,0.4,0,0.7c-4.2,0.1-8.3,0.2-12.3,1.7c-3.2,1.2-5.3,3.6-6.5,6.8c-1.4,4-1.5,8-1.6,12.2
			c-0.4,0-0.8,0-1.2,0h-0.1c-0.2-3.7-0.7-7.4-1.4-10.9c-0.7-3.7-3-6.5-6.6-8C9.1,22.2,4.6,22.3,0,22.2c0-0.2,0-0.4,0-0.6
			c0-0.3,0-0.5,0-0.8c2.1-0.1,3.8-0.1,4.4-0.1c3-0.2,6.1-0.5,9-1.7c3-1.2,5.1-3.5,6.2-6.6c1.4-3.9,1.5-8,1.6-12.2c0.1,0,0.2,0,0.3,0
			c0.3,0,0.5,0,0.8,0c0.2,13.6,3.9,16.2,6.1,17.6c4.5,2.9,9.6,2.9,14.6,3C43,20.9,43,21.2,43,21.5z"/>
	</g>
</g>
</svg>
