<?xml version="1.0" encoding="utf-8"?>
<!-- Generator: Adobe Illustrator 22.0.0, SVG Export Plug-In . SVG Version: 6.00 Build 0)  -->
<svg version="1.1" id="Слой_1" xmlns="http://www.w3.org/2000/svg" xmlns:xlink="http://www.w3.org/1999/xlink" x="0px" y="0px"
	 viewBox="0 0 43 43" style="enable-background:new 0 0 43 43;" xml:space="preserve">
<style type="text/css">
	.st0{fill:#898989;}
	.st1{fill:#FFFFFF;}
</style>
<ellipse class="st0" cx="21.5" cy="21.5" rx="21.5" ry="21.5"/>
<g>
	<g>
		<path class="st1" d="M21.5,12.8c2.1,0,4.1,0,6.2,0c0.4,0,0.8,0,1.3,0c0.6,0,1.1,0.1,1.6,0.2c0.5,0.1,1,0.2,1.4,0.5
			c0.5,0.3,0.9,0.6,1.2,1.1c0.2,0.3,0.3,0.6,0.4,0.9c0.1,0.3,0.2,0.7,0.2,1c0,0.3,0.1,0.7,0.1,1c0,0.5,0,0.9,0,1.4
			c0,1.6,0,3.3,0,4.9c0,0.4,0,0.7,0,1.1c0,0.6-0.1,1.2-0.3,1.8c-0.1,0.5-0.3,0.9-0.5,1.4c-0.3,0.6-0.8,1-1.4,1.4
			c-0.4,0.2-0.8,0.3-1.2,0.4c-0.4,0.1-0.9,0.2-1.4,0.2c-0.7,0.1-1.3,0.1-2,0.1c-3.8,0-7.6,0-11.3,0c-0.4,0-0.7,0-1.1,0
			c-0.6,0-1.2-0.1-1.8-0.2c-0.4-0.1-0.9-0.2-1.3-0.4c-0.4-0.2-0.8-0.4-1.1-0.8c-0.4-0.4-0.7-0.8-0.9-1.3c-0.2-0.4-0.3-0.9-0.4-1.3
			c-0.1-0.4-0.1-0.8-0.1-1.2c0-0.4,0-0.8,0-1.2c0-1.7,0-3.4,0-5.2c0-0.3,0-0.6,0-1c0-0.5,0-0.9,0.1-1.3c0.1-0.4,0.2-0.8,0.3-1.2
			c0.2-0.6,0.6-1,1.1-1.4c0.4-0.2,0.8-0.4,1.2-0.5c0.5-0.1,0.9-0.2,1.4-0.3c0.4-0.1,0.8-0.1,1.2-0.1c0.5,0,0.9,0,1.4,0
			C17.7,12.8,19.6,12.7,21.5,12.8C21.5,12.8,21.5,12.8,21.5,12.8z M19.4,17.9c-0.3,0-0.6,0.2-0.7,0.5c-0.1,0.1-0.1,0.3-0.1,0.4
			c0,0.9,0,1.9,0,2.8c0,0.9,0,1.7,0,2.6c0,0.3,0.2,0.5,0.4,0.7c0.3,0.1,0.5,0.1,0.8,0c0.5-0.3,1-0.5,1.5-0.8
			c0.9-0.5,1.8-0.9,2.7-1.4c0.4-0.2,0.7-0.4,1.1-0.6c0.3-0.2,0.4-0.4,0.4-0.7c0-0.3-0.2-0.6-0.4-0.7c-0.8-0.4-1.6-0.8-2.4-1.2
			c-0.7-0.4-1.4-0.7-2.1-1.1c-0.2-0.1-0.5-0.3-0.7-0.4C19.7,17.9,19.6,17.9,19.4,17.9z"/>
	</g>
</g>
</svg>
